<?xml version="1.0" encoding="UTF-8" standalone="no"?>
<!-- Created with Inkscape (http://www.inkscape.org/) -->

<svg
   xmlns:dc="http://purl.org/dc/elements/1.1/"
   xmlns:cc="http://creativecommons.org/ns#"
   xmlns:rdf="http://www.w3.org/1999/02/22-rdf-syntax-ns#"
   xmlns:svg="http://www.w3.org/2000/svg"
   xmlns="http://www.w3.org/2000/svg"
   xmlns:sodipodi="http://sodipodi.sourceforge.net/DTD/sodipodi-0.dtd"
   xmlns:inkscape="http://www.inkscape.org/namespaces/inkscape"
   width="682.28931"
   height="914.54865"
   id="svg3977"
   version="1.1"
   inkscape:version="0.92.4 (5da689c313, 2019-01-14)"
   sodipodi:docname="Logo_of_the_French_Navy_(Marine_Nationale).svg"
   viewBox="0 0 639.64624 857.38934">
  <defs
     id="defs3979" />
  <sodipodi:namedview
     id="base"
     pagecolor="#ffffff"
     bordercolor="#666666"
     borderopacity="1.0"
     inkscape:pageopacity="0.0"
     inkscape:pageshadow="2"
     inkscape:zoom="0.55029297"
     inkscape:cx="680.05113"
     inkscape:cy="438.47404"
     inkscape:document-units="px"
     inkscape:current-layer="layer1"
     showgrid="false"
     inkscape:window-width="1820"
     inkscape:window-height="1057"
     inkscape:window-x="-8"
     inkscape:window-y="-8"
     inkscape:window-maximized="1"
     fit-margin-top="0"
     fit-margin-left="0"
     fit-margin-right="0"
     fit-margin-bottom="0" />
  <metadata
     id="metadata3982">
    <rdf:RDF>
      <cc:Work
         rdf:about="">
        <dc:format>image/svg+xml</dc:format>
        <dc:type
           rdf:resource="http://purl.org/dc/dcmitype/StillImage" />
        <dc:title />
      </cc:Work>
    </rdf:RDF>
  </metadata>
  <g
     inkscape:label="Layer 1"
     inkscape:groupmode="layer"
     id="layer1"
     transform="translate(-52.224136,-97.486419)">
    <g
       id="g3884"
       transform="matrix(1.092739,0,0,1.1205575,1568.3324,413.27042)">
      <g
         style="stroke:none"
         transform="translate(-404.24079,-19.502845)"
         id="g3879">
        <path
           style="fill:#808080;stroke:none"
           d="m -694.12399,334.08779 c 106.37915,-389.374363 144.49835,-432.540296 144.49835,-432.540296 l -147.15783,-163.854374 -140.06588,155.04499 140.06588,-135.66436 z"
           id="path3855"
           inkscape:connector-curvature="0"
           sodipodi:nodetypes="cccccc" />
        <path
           style="fill:#d40000;stroke:none"
           d="m -653.64299,266.3406 c 23.04882,-41.66517 110.59,-76.01677 110.59,-76.01677 57.62204,-21.27583 61.16802,-14.18389 61.16802,-14.18389 l 0.46787,19.95172 c -3.44765,2.50738 -16.29798,5.6416 -16.29798,5.6416 1.2537,21.31274 -2.50738,20.37247 -2.50738,20.37247 l -15.67113,6.26846 c 6.26845,-0.31342 6.8953,5.95503 6.8953,5.95503 0.62685,15.98455 0.62685,15.98455 0.62685,15.98455 36.35702,-10.34295 53.59526,-7.20872 53.59526,-7.20872 3.14278,8.27598 1.70223,17.36253 1.70223,17.36253 50.30847,-4.98652 55.18418,2.10542 55.18418,2.10542 0.8865,12.85415 -9.75142,30.36239 -9.75142,30.36239 -59.1734,-7.75682 -107.04403,18.61635 -107.04403,18.61635 -3.54596,2.65948 -9.97304,-14.62713 -9.97304,-14.62713 -16.1785,5.7622 -30.58401,13.07577 -30.58401,13.07577 -4.21084,0.66487 -6.42707,-6.87032 -6.42707,-6.87032 -6.87032,-11.4136 -4.43247,-17.28662 -4.43247,-17.28662 v 0 c -22.82719,7.09195 -30.584,16.84337 -30.584,16.84337 -21.9407,-23.27044 -7.97844,-31.91375 -7.97844,-31.91375 16.1785,-14.84875 16.1785,-15.07038 16.1785,-15.07038 -43.8814,24.93261 -48.31387,35.2381 -48.31387,35.2381 -13.51902,-7.75682 -16.84337,-24.60018 -16.84337,-24.60018 z"
           id="path3857"
           inkscape:connector-curvature="0"
           sodipodi:nodetypes="cccccccccccccccccccccccc" />
        <path
           style="fill:#000080;stroke:none"
           d="m -979.3531,278.89707 c 0,0 24.8218,1.55137 90.64391,27.03804 0,0 16.84336,11.08116 20.83258,5.31896 6.87032,-10.4163 7.09194,-14.62714 7.09194,-14.62714 34.79485,12.41091 31.69213,14.40551 31.69213,14.40551 6.87032,2.88111 10.19467,-2.65948 10.19467,-2.65948 v 0 c 10.19467,-15.73525 10.19467,-17.06498 10.19467,-17.06498 15.292,9.75142 22.60557,16.84336 22.60557,16.84336 3.54597,0.88649 5.7622,-0.22162 5.7622,-0.22162 16.1785,-17.28661 17.50824,-20.38934 17.50824,-20.38934 2.8811,-3.98922 -7.53519,-14.84876 -7.53519,-14.84876 27.7029,17.72986 27.92452,24.15694 27.92452,24.15694 3.98922,1.10811 7.09195,-2.21624 7.09195,-2.21624 17.50823,-20.61096 13.96226,-27.03803 13.96226,-27.03803 -20.16484,-32.94399 -101.23708,-86.55329 -162.00659,-85.54657 -3.32435,6.42707 -2.65948,19.05959 -2.65948,19.05959 58.95178,19.0596 63.16263,28.36778 63.16263,28.36778 -38.1192,-8.64331 -41.0003,-5.54058 -41.0003,-5.54058 -4.87571,4.87571 -3.54597,21.71908 -3.54597,21.71908 -22.8272,-7.97844 -42.55166,-6.20545 -42.55166,-6.20545 -5.09734,6.42707 -4.21085,19.28122 -4.21085,19.28122 -45.87601,-7.97844 -67.59508,-2.21623 -67.59508,-2.21623 0,0 -4.43247,15.51362 2.43785,22.38394 z"
           id="path3877"
           inkscape:connector-curvature="0"
           sodipodi:nodetypes="cccccccccccccccccccccccc" />
      </g>
    </g>
  </g>
</svg>
