<?xml version="1.0" encoding="UTF-8" standalone="no"?>
<!DOCTYPE svg PUBLIC "-//W3C//DTD SVG 1.1//EN" "http://www.w3.org/Graphics/SVG/1.1/DTD/svg11.dtd">
<!-- Generated by Microsoft Visio, SVG Export wasd-logo-is.svg Page-1 -->
<svg xmlns="http://www.w3.org/2000/svg" xmlns:xlink="http://www.w3.org/1999/xlink" xmlns:ev="http://www.w3.org/2001/xml-events"
		xmlns:v="http://schemas.microsoft.com/visio/2003/SVGExtensions/" width="6.71688in" height="5.54145in"
		viewBox="0 0 483.615 398.985" xml:space="preserve" color-interpolation-filters="sRGB" class="st2">
	<v:documentProperties v:langID="1036" v:metric="true" v:viewMarkup="false"/>

	<style type="text/css">
	<![CDATA[
		.st1 {fill:#ff0000;stroke:#000000;stroke-linecap:round;stroke-linejoin:round;stroke-width:0.24}
		.st2 {fill:none;fill-rule:evenodd;font-size:12px;overflow:visible;stroke-linecap:square;stroke-miterlimit:3}
	]]>
	</style>

	<g v:mID="0" v:index="1" v:groupContext="foregroundPage">
		<title>Page-1</title>
		<v:pageProperties v:drawingScale="0.0393701" v:pageScale="0.0393701" v:drawingUnits="24" v:shadowOffsetX="9"
				v:shadowOffsetY="-9"/>
		<g id="shape1-1" v:mID="1" v:groupContext="shape" transform="translate(14.2547,-13.7015)">
			<title>Sheet.1</title>
			<path d="M369.21 289.31 C376.31 289.59 384.05 281.46 391.08 274.32 C420.52 244.42 437.48 231.93 439.73 224.06 C431.57
						 222.37 421.08 218.7 411.75 214.91 C372.65 199 353.95 180.74 343.82 180.74 C337.92 180.74 309.6 204.03 291.45
						 216.21 C287.11 219.11 283.36 221.38 270.7 231.23 C271.54 237.91 276.07 242.19 281.71 246.73 C305.36 265.74
						 348.75 289.17 369.21 289.31 ZM445.99 236.22 C436.36 242.62 416.24 262.73 397.67 281.69 C393.92 285.52 390.23
						 289.31 380.67 295.49 C364.07 304.77 326.39 289.99 286.2 261.56 C278.08 255.81 269.86 249.51 262.4 242.76
						 C255.23 253.02 240.33 274.81 229.49 295.97 C227.3 300.24 225.28 304.49 226.26 309.27 C227.48 315.9 251.35
						 327.28 303.76 362.83 C314.32 369.99 326.04 378.13 335.86 384.73 C340.17 387.18 350.19 394.27 360.76 398.08
						 C362.9 398.85 365.06 399.49 369.98 398.43 C378.42 396.74 396.87 369.99 422.77 337.92 C428 331.44 433.54
						 324.74 442.26 314.34 C445.36 310.82 449.61 306.81 454.57 298.48 C455.57 296.79 456.61 294.93 456.61 289.31
						 C456.41 281.82 455.59 271.76 449.6 252.04 C448.39 248.05 446.97 243.67 445.99 236.22 ZM272.67 85.96 C281.04
						 85.82 286.28 81.95 291.16 78.53 C311.63 64.17 325.82 57.56 329.27 52.07 C324.98 49.68 317.36 47.71 311 45.66
						 C284.37 37.05 279.98 26.9 272.11 26.76 C266.34 26.83 257.19 34.1 234.6 46.69 C229.21 49.7 223.06 53 212.27
						 58.68 C218.11 65.99 224.38 69.55 230 72.49 C253.55 84.81 265.57 86.25 272.67 85.96 ZM186.32 109.59 C190.26
						 109.94 194.26 106.15 204.35 103.13 C205.33 102.84 206.36 102.56 209.11 102.42 C216.07 102.42 224.65 107.81
						 234.76 114.59 C235.74 115.24 236.74 115.92 243.98 120.56 C256.36 127.31 263.65 130.78 286.01 139.31 C288.18
						 140.14 290.49 141.02 292.14 142.21 C297.14 145.94 293.82 145.68 298.32 153.36 C298.76 154.11 299.27 154.93
						 300.51 156.56 C314.01 146.71 321.77 140.94 345.41 122.09 C347.71 120.26 350.15 118.31 351.42 115.92 C352.54
						 114.37 352.15 112.18 351.74 110.05 C347.52 88.1 342.14 72.6 341.01 59.38 C330.04 63.74 327.61 65.37 325.29
						 66.95 C301.4 83.28 289.26 95.38 270.7 95.52 C261.28 95.95 257.45 94.44 253.97 93.06 C218.08 78.78 219.09
						 76.96 206.01 67.68 C202.5 72.67 201.49 74.53 200.55 76.27 C190.94 94.14 189.28 98.9 186.32 109.59 ZM280.54
						 148.68 C277.43 144.97 269.15 142.19 261.87 139.23 C231.35 126.86 218.11 111.56 207.42 112.26 C198.98 112.12
						 183.78 124.09 149.86 139.83 C141.77 143.58 132.61 147.56 131.48 153.18 C140.93 163.41 148.29 168.39 154.84
						 172.49 C182.27 189.68 195.45 191.58 203.9 192.56 C209.11 193.12 217.94 187.87 225.75 183.19 C258.46 163.56
						 273.23 153.74 280.54 148.68 ZM203.48 291.56 C214.31 291.13 228.09 281.26 245.71 250.64 C249.26 244.45 252.98
						 237.42 258.61 230.81 C264.23 223.77 272.04 218.09 288.95 205.9 C292.36 203.44 296.15 200.71 302.62 197.48
						 C301.45 192.48 297.86 182.9 292.93 167.96 C291.94 164.94 290.89 161.7 288.84 156.13 C276.75 161.48 250.58
						 178.05 224.25 195.27 C218.93 198.75 213.61 202.26 204.61 202.26 C187.87 202.26 156.32 185.88 137.46 171.35
						 C133.65 168.42 130.36 165.56 124.87 162.46 C119.11 171.18 110.22 189.02 102.88 209.1 C101.4 213.16 99.98
						 217.31 99.84 221.81 C114.1 235.51 136.89 249.33 178.75 278.94 C187.21 284.93 196.45 291.56 203.48 291.56
						 ZM149.09 84.34 C147.23 81.18 139.99 79.1 134.23 76.93 C110.12 67.85 112.07 57.27 98.29 57.56 C91.26 57.84
						 78.8 64.32 48.88 76.28 C41.74 79.14 33.61 82.31 19.4 87.65 C25.73 96.23 31.01 100.1 35.74 103.24 C55.56
						 116.41 65.81 116.76 72.42 116.76 C80.07 117.02 88.17 113.26 95.48 109.94 C126.08 96.04 142.73 89.97 149.09
						 84.34 ZM162.17 90.47 C146.5 95.4 126.85 106.07 96.03 120.28 C89.8 123.16 83.11 126.18 72 126.6 C62.57 127.02
						 46.39 122.58 27.99 108.4 C24.27 105.54 20.46 102.27 13.92 98.06 C9.28 106.49 6.5 123.36 2.6 139.02 C1.82
						 142.19 0.98 145.3 0 153.71 C12.13 164.41 27.59 173.99 61.58 197.23 C68.45 201.93 76.07 207.18 82.96 206.9
						 C96.75 206.9 94.83 201.56 111.57 165.59 C114.96 158.33 119.11 149.81 121.64 146.15 C124.59 141.54 136.91
						 134.88 160.05 123.94 C164.73 121.73 169.85 119.35 173.11 117.74 C172.26 114.37 169.34 108.11 165.44 98.25
						 C164.65 96.26 163.82 94.12 162.17 90.47 Z" class="st1"/>
		</g>
		<g id="shape2-3" v:mID="2" v:groupContext="shape" transform="translate(0.12,-0.12)">
			<title>Sheet.2</title>
			<path d="M70.72 197.26 C77.53 202.08 84.98 207.47 99.43 206.91 C98.46 224.33 115.62 225.36 189.48 280.17 C199.68 287.74
						 210.94 296.31 225.78 289.65 C224.86 299.7 225.34 305.08 239.75 314.48 C241.73 315.76 244 317.16 247.24 319.11
						 C258.74 326.12 293.3 351.31 351.4 387.82 C359.43 392.89 367.89 398.15 378.04 398.98 C381.81 399.14 388.87
						 398.39 395.78 393.64 C396.74 392.97 397.71 392.25 400.66 389.42 C404.86 385.19 433.38 349.6 471.28 302.89
						 C476.55 296.43 481.96 289.77 483.22 280.57 C484.33 270.44 479.45 252.86 471.86 219.26 C470.8 214.64 469.68
						 209.7 466.2 204.64 C459.01 195.07 436.05 194.35 401.64 175.14 C396.9 172.47 391.92 169.48 382.93 164.7 C376.11
						 161.31 363.01 151.3 350.74 154.77 C349.05 155.25 347.35 155.97 342.57 159.08 C342.57 159.08 339.59 161.04
						 333.14 165.87 C332.25 166.53 331.31 167.25 326.33 171.15 C324.3 167.53 322.7 163.9 321.54 159.24 C321.35
						 158.6 321.2 157.96 320.91 155.69 C342.67 137.74 351.48 131.04 365.62 120.26 C370.12 116.83 375.2 112.96
						 377.47 106.78 C380.85 97.14 372.97 76.21 366.45 44.33 C365.53 39.94 364.66 35.32 362.53 31.97 C356.15 21.81
						 336.38 28.42 301.34 6.02 C296.5 2.95 291.38 -0.71 284.66 0.44 C276.54 1.71 263.54 7.49 223.61 29.61 C218.1
						 32.68 212.06 36.03 208.58 42.37 C205.1 47.47 198.43 64.41 194.32 73.69 C193.74 74.97 193.25 76.13 191.03
						 80.31 C188.47 76.17 187.36 63.25 175.61 58.75 C173.97 58.11 172.13 57.67 168.21 56.71 C159.76 55 146.37
						 48.26 125.68 34.71 C122.83 32.84 119.83 30.85 112.38 30.53 C94.64 30.85 70.77 45.55 39.64 56.52 C35.33 58.03
						 30.94 59.46 24.62 63.45 C14.08 70.2 14.42 80.02 2.87 122.09 C1.27 127.9 -0.55 134.33 0.16 141.22 C2.27 156.25
						 21.27 162.39 70.72 197.26 ZM316.59 154.2 C317.3 157.44 317.59 158.48 317.88 159.47 C319.99 166.66 321.94
						 171.36 324.89 175.72 C329.25 173.04 330.97 171.76 332.65 170.5 C344.76 161.41 354.15 154.06 363.07 158.77
						 C365.39 159.69 366.96 160.42 368.4 161.11 C378.87 166.11 382.83 168.9 385.5 170.23 C393.89 174.56 398.55
						 177.33 403 179.75 C435.16 197.34 455.54 197.49 462.84 206.79 C466.64 212.42 467.45 217.12 468.29 221.51
						 C474.38 253.34 482.2 269.29 479.44 281.61 C477.57 289.96 472.37 296.32 467.34 302.48 C430.94 347.06 403.53
						 381.02 399.56 385.11 C396.75 387.92 395.96 388.6 395.14 389.23 C389.14 393.84 380.93 396.22 377.06 395.51
						 C367.14 393.6 358.38 388.08 350.08 382.79 C289.98 344.51 253.92 318.78 242.06 311.42 C237.56 308.19 236.32
						 307.27 235.26 306.35 C227.61 299.66 229.69 292.44 230.25 284.7 C227.32 285.72 224.97 286.5 222.73 287 C206.45
						 290.57 195.37 278.65 190.03 275.28 C181.31 269.23 177.05 266.38 173.13 263.74 C144.73 244.58 133.92 236.19
						 124.5 229.86 C120.84 227.47 118.54 226.02 116.53 224.64 C102.01 214.68 103.12 208.48 102.93 203.08 C86.25
						 203.07 80.61 198.97 75.15 195.13 C35.59 167.35 5.11 153.22 3.98 141.97 C3.14 135.01 4.67 129.34 6.04 124.14
						 C16.02 86.51 18.21 73.68 24.94 67.86 C31.69 62.79 35.85 61.51 40.04 60.08 C70.35 49.76 101.86 32.03 115.08
						 34.11 C120 34.67 123.16 36.93 126.14 39 C147.72 53.93 160.08 58.24 167.98 60.33 C176.9 62.93 178.23 64.33
						 179.37 65.66 C187.63 75.3 185.81 81.01 191.23 87.54 C193.67 82.86 194.43 81.61 195.21 80.2 C200.9 69.99
						 207.74 51.4 211.41 45.64 C214.92 39.31 219.34 36.75 223.64 34.27 C254.82 16.34 280.31 3.03 287.62 3.73 C291
						 3.73 294.13 5.85 297.16 7.78 C319.09 21.75 335.44 25.67 340.78 27.22 C343.31 27.92 345.44 28.18 347.3 28.49
						 C360.82 30.73 360.75 35.79 363 45.08 C364.69 52.04 365.76 56.19 366.73 60.03 C373.73 87.85 375.02 99.5 374.25
						 104.56 C373.97 107.51 372.83 108.68 371.69 109.8 C363.45 117.89 355.41 123.26 352.59 125.51 C347.25 129.73
						 344.89 131.59 342.72 133.3 C327.04 145.64 321.54 149.79 316.59 154.2 Z" class="st1"/>
		</g>
	</g>
</svg>
